<svg width="22" height="23" viewBox="0 0 22 23" fill="none" xmlns="http://www.w3.org/2000/svg">
<path d="M20.1242 8.41964C20.0666 8.24983 19.9604 8.10061 19.819 7.99043C19.6775 7.88024 19.5068 7.81389 19.3281 7.79959L14.0989 7.38408L11.8361 2.37506C11.764 2.21373 11.6468 2.07671 11.4986 1.98052C11.3504 1.88434 11.1775 1.8331 11.0008 1.83301C10.8241 1.83291 10.6511 1.88395 10.5028 1.97998C10.3545 2.076 10.2371 2.2129 10.1649 2.37415L7.90207 7.38408L2.67292 7.79959C2.49723 7.8135 2.32927 7.87774 2.18913 7.98462C2.04899 8.0915 1.94261 8.23648 1.88272 8.40224C1.82282 8.56799 1.81195 8.74749 1.8514 8.91926C1.89084 9.09103 1.97894 9.2478 2.10515 9.37081L5.96946 13.1379L4.60278 19.0559C4.56128 19.235 4.57458 19.4225 4.64096 19.594C4.70733 19.7655 4.82371 19.913 4.975 20.0175C5.12628 20.1221 5.30549 20.1787 5.48937 20.1801C5.67324 20.1815 5.85329 20.1276 6.00615 20.0254L11.0005 16.6958L15.9948 20.0254C16.1511 20.1291 16.3353 20.1825 16.5228 20.1784C16.7103 20.1743 16.8921 20.1129 17.0436 20.0024C17.1951 19.8919 17.3092 19.7377 17.3705 19.5604C17.4317 19.3832 17.4372 19.1914 17.3863 19.0109L15.7087 13.1406L19.8692 9.39649C20.1416 9.15067 20.2416 8.76727 20.1242 8.41964Z" fill="#F3CD03"/>
</svg>
