<svg width="23" height="23" viewBox="0 0 23 23" fill="none" xmlns="http://www.w3.org/2000/svg">
<path d="M21.1125 8.41964C21.0548 8.24983 20.9487 8.10061 20.8072 7.99043C20.6658 7.88024 20.4951 7.81389 20.3163 7.79959L15.0872 7.38408L12.8244 2.37506C12.7523 2.21373 12.6351 2.07671 12.4869 1.98052C12.3387 1.88434 12.1658 1.8331 11.9891 1.83301C11.8124 1.83291 11.6394 1.88395 11.4911 1.97998C11.3428 2.076 11.2254 2.2129 11.1532 2.37415L8.89035 7.38408L3.6612 7.79959C3.48551 7.8135 3.31755 7.87774 3.17741 7.98462C3.03727 8.0915 2.93089 8.23648 2.871 8.40224C2.8111 8.56799 2.80023 8.74749 2.83968 8.91926C2.87913 9.09103 2.96722 9.2478 3.09344 9.37081L6.95774 13.1379L5.59106 19.0559C5.54957 19.235 5.56287 19.4225 5.62924 19.594C5.69561 19.7655 5.81199 19.913 5.96328 20.0175C6.11457 20.1221 6.29377 20.1787 6.47765 20.1801C6.66152 20.1815 6.84157 20.1276 6.99443 20.0254L11.9888 16.6958L16.9831 20.0254C17.1393 20.1291 17.3236 20.1825 17.5111 20.1784C17.6986 20.1743 17.8803 20.1129 18.0319 20.0024C18.1834 19.8919 18.2975 19.7377 18.3587 19.5604C18.42 19.3832 18.4255 19.1914 18.3746 19.0109L16.6969 13.1406L20.8575 9.39649C21.1299 9.15067 21.2299 8.76727 21.1125 8.41964Z" fill="#F3CD03"/>
</svg>
